<svg xmlns="http://www.w3.org/2000/svg" width="260" height="119" fill="none" viewBox="0 0 260 119"><path fill="#1A1A1A" d="M2.22485e-05 20.3854V-0.00014775H96.046V20.3854H60.2429V116.945H35.8031V20.3854H2.22485e-05ZM111.863 116.945V-0.00014775H136.589V48.2513H186.782V-0.00014775H211.45V116.945H186.782V68.6368H136.589V116.945H111.863ZM245.597 118.43C241.828 118.43 238.592 117.098 235.89 114.433C233.225 111.73 231.892 108.494 231.892 104.725C231.892 100.995 233.225 97.797 235.89 95.1322C238.592 92.4675 241.828 91.1351 245.597 91.1351C249.251 91.1351 252.449 92.4675 255.19 95.1322C257.931 97.797 259.301 100.995 259.301 104.725C259.301 107.238 258.654 109.541 257.36 111.635C256.104 113.69 254.448 115.346 252.392 116.603C250.336 117.821 248.071 118.43 245.597 118.43Z"/></svg>