<svg xmlns="http://www.w3.org/2000/svg" width="1198" height="183" fill="none" viewBox="0 0 1198 183"><path fill="#1A1A1A" d="M-4.43634e-05 33.3322V2.4243H145.622V33.3322H91.3384V179.733H54.2836V33.3322H-4.43634e-05ZM169.604 179.733V2.4243H207.091V75.5816H283.192V2.4243H320.594V179.733H283.192V106.49H207.091V179.733H169.604ZM351.501 179.733V2.4243H470.977V33.3322H388.989V75.5816H464.83V106.49H388.989V148.826H471.324V179.733H351.501ZM557.208 179.733V2.4243H628.201C641.245 2.4243 652.125 4.35785 660.84 8.22494C669.555 12.092 676.106 17.4598 680.493 24.3282C684.879 31.1389 687.073 38.9885 687.073 47.8771C687.073 54.8032 685.687 60.8924 682.917 66.1448C680.147 71.3394 676.337 75.6105 671.489 78.9581C666.698 82.248 661.215 84.5856 655.039 85.9708V87.7024C661.792 87.9909 668.112 89.8956 674 93.4164C679.945 96.9372 684.764 101.872 688.458 108.221C692.152 114.512 693.999 122.016 693.999 130.731C693.999 140.139 691.661 148.537 686.986 155.925C682.369 163.255 675.529 169.056 666.467 173.327C657.406 177.598 646.237 179.733 632.962 179.733H557.208ZM594.695 149.085H625.257C635.704 149.085 643.323 147.094 648.113 143.111C652.904 139.071 655.299 133.703 655.299 127.008C655.299 122.102 654.116 117.773 651.749 114.022C649.383 110.27 646.006 107.326 641.62 105.191C637.291 103.055 632.125 101.988 626.123 101.988H594.695V149.085ZM594.695 76.6205H622.486C627.623 76.6205 632.183 75.7259 636.166 73.9367C640.206 72.0897 643.38 69.4924 645.689 66.1448C648.055 62.7971 649.239 58.7857 649.239 54.1106C649.239 47.7039 646.959 42.5382 642.399 38.6134C637.897 34.6885 631.49 32.7261 623.179 32.7261H594.695V76.6205ZM718.392 179.733V2.4243H755.88V148.826H831.894V179.733H718.392ZM1012.75 91.0788C1012.75 110.414 1009.09 126.864 1001.76 140.428C994.485 153.991 984.557 164.352 971.975 171.509C959.45 178.608 945.367 182.158 929.726 182.158C913.969 182.158 899.828 178.579 887.303 171.422C874.778 164.265 864.88 153.905 857.607 140.341C850.335 126.777 846.698 110.357 846.698 91.0788C846.698 71.7434 850.335 55.2938 857.607 41.7301C864.88 28.1664 874.778 17.835 887.303 10.7357C899.828 3.57866 913.969 0.000150946 929.726 0.000150946C945.367 0.000150946 959.45 3.57866 971.975 10.7357C984.557 17.835 994.485 28.1664 1001.76 41.7301C1009.09 55.2938 1012.75 71.7434 1012.75 91.0788ZM974.745 91.0788C974.745 78.5541 972.87 67.9917 969.118 59.3918C965.424 50.7918 960.201 44.2697 953.448 39.8254C946.695 35.3812 938.787 33.159 929.726 33.159C920.664 33.159 912.757 35.3812 906.004 39.8254C899.251 44.2697 893.998 50.7918 890.247 59.3918C886.553 67.9917 884.706 78.5541 884.706 91.0788C884.706 103.604 886.553 114.166 890.247 122.766C893.998 131.366 899.251 137.888 906.004 142.332C912.757 146.777 920.664 148.999 929.726 148.999C938.787 148.999 946.695 146.777 953.448 142.332C960.201 137.888 965.424 131.366 969.118 122.766C972.87 114.166 974.745 103.604 974.745 91.0788ZM1158.09 59.7381C1156.88 55.5247 1155.18 51.8019 1152.99 48.5697C1150.79 45.2798 1148.11 42.5093 1144.93 40.2583C1141.82 37.9496 1138.24 36.1892 1134.2 34.9771C1130.22 33.7651 1125.8 33.159 1120.95 33.159C1111.89 33.159 1103.93 35.41 1097.06 39.912C1090.25 44.414 1084.94 50.965 1081.13 59.5649C1077.32 68.1072 1075.41 78.5541 1075.41 90.9057C1075.41 103.257 1077.29 113.762 1081.04 122.42C1084.79 131.077 1090.1 137.686 1096.97 142.246C1103.84 146.748 1111.95 148.999 1121.3 148.999C1129.78 148.999 1137.03 147.498 1143.03 144.497C1149.09 141.438 1153.71 137.138 1156.88 131.597C1160.11 126.056 1161.73 119.505 1161.73 111.944L1169.35 113.069H1123.64V84.8453H1197.83V107.182C1197.83 122.766 1194.54 136.156 1187.96 147.354C1181.38 158.493 1172.32 167.093 1160.78 173.154C1149.23 179.156 1136.02 182.158 1121.13 182.158C1104.5 182.158 1089.9 178.492 1077.32 171.162C1064.73 163.774 1054.92 153.299 1047.88 139.735C1040.9 126.114 1037.41 109.953 1037.41 91.252C1037.41 76.8803 1039.48 64.0669 1043.64 52.8119C1047.85 41.4993 1053.74 31.9181 1061.3 24.0685C1068.86 16.2189 1077.66 10.2451 1087.71 6.1471C1097.75 2.04913 1108.63 0.000150946 1120.35 0.000150946C1130.39 0.000150946 1139.74 1.47196 1148.4 4.41557C1157.05 7.30146 1164.73 11.3994 1171.43 16.7095C1178.18 22.0195 1183.69 28.3396 1187.96 35.6698C1192.23 42.9422 1194.97 50.965 1196.19 59.7381H1158.09Z"/></svg>